# Blender 5.0.0
# www.blender.org
mtllib stairs.mtl
o Plane
v -2.857426 -1.357677 1.848580
v 2.857426 1.649736 1.848580
v -2.857426 -1.357677 -1.848580
v 2.857426 1.649736 -1.848580
v -2.078128 -1.349784 1.848580
v -2.078128 -0.757773 1.848580
v -1.039064 -0.749880 1.848580
v -1.039064 -0.157869 1.848580
v 0.000000 -0.149976 1.848580
v 0.000000 0.442035 1.848580
v 1.039064 0.449928 1.848580
v 1.039064 1.041939 1.848580
v 2.078128 1.049832 1.848580
v 2.078128 1.641843 1.848580
v 2.078128 1.641843 -1.848580
v 2.078128 1.049832 -1.848580
v 1.039064 1.041939 -1.848580
v 1.039064 0.449928 -1.848580
v 0.000000 0.442035 -1.848580
v 0.000000 -0.149976 -1.848580
v -1.039064 -0.157869 -1.848580
v -1.039064 -0.749880 -1.848580
v -2.078128 -0.757773 -1.848580
v -2.078128 -1.349784 -1.848580
vn -0.0101 0.9999 -0.0000
vn -1.0000 -0.0000 -0.0000
vn -0.0076 1.0000 -0.0000
vt 0.909091 0.000000
vt 1.000000 0.000000
vt 1.000000 1.000000
vt 0.909091 1.000000
vt 0.000000 0.000000
vt 0.090909 0.000000
vt 0.090909 1.000000
vt 0.000000 1.000000
vt 0.181818 0.000000
vt 0.181818 1.000000
vt 0.272727 0.000000
vt 0.272727 1.000000
vt 0.363636 0.000000
vt 0.363636 1.000000
vt 0.454545 0.000000
vt 0.454545 1.000000
vt 0.545455 0.000000
vt 0.545455 1.000000
vt 0.636364 0.000000
vt 0.636364 1.000000
vt 0.727273 0.000000
vt 0.727273 1.000000
vt 0.818182 0.000000
vt 0.818182 1.000000
s 0
f 14/1/1 2/2/1 4/3/1 15/4/1
f 1/5/1 5/6/1 24/7/1 3/8/1
f 5/6/2 6/9/2 23/10/2 24/7/2
f 6/9/3 7/11/3 22/12/3 23/10/3
f 7/11/2 8/13/2 21/14/2 22/12/2
f 8/13/3 9/15/3 20/16/3 21/14/3
f 9/15/2 10/17/2 19/18/2 20/16/2
f 10/17/3 11/19/3 18/20/3 19/18/3
f 11/19/2 12/21/2 17/22/2 18/20/2
f 12/21/3 13/23/3 16/24/3 17/22/3
f 13/23/2 14/1/2 15/4/2 16/24/2
